<?xml version="1.0" encoding="UTF-8"?><svg id="a" xmlns="http://www.w3.org/2000/svg" xmlns:xlink="http://www.w3.org/1999/xlink" viewBox="0 0 1105.15 1166.55"><defs><linearGradient id="b" x1="12.71" y1="3776.61" x2="1098.21" y2="4569.44" gradientTransform="translate(0 -3480)" gradientUnits="userSpaceOnUse"><stop offset="0" stop-color="#a8d0f7"/><stop offset="1" stop-color="#47a9ff"/></linearGradient><linearGradient id="c" x1="12.89" y1="3560.07" x2="1080.53" y2="3777.17" gradientTransform="translate(0 -3480)" gradientUnits="userSpaceOnUse"><stop offset="0" stop-color="#0077d2"/><stop offset="1" stop-color="#0b59a2"/></linearGradient><linearGradient id="d" x1="859.56" y1="107.45" x2="951.66" y2="107.45" gradientTransform="matrix(1,0,0,1,0,0)" xlink:href="#b"/></defs><path d="m0,1105.15V245.59h1105.15v859.56c-.1,33.87-27.53,61.3-61.4,61.4H61.4c-33.87-.1-61.3-27.53-61.4-61.4Z" fill="url(#b)"/><path d="m1105.15,122.79v184.19H0V122.79c.1-33.87,27.53-61.3,61.4-61.4h982.36c33.87.1,61.3,27.53,61.4,61.4Z" fill="url(#c)"/><path d="m905.61,260.94h0c-50.86,0-92.09-41.22-92.1-92.08h0V61.4h184.19v107.45c0,50.86-41.22,92.09-92.08,92.1h-.01Z" isolation="isolate" opacity=".05"/><path d="m905.61,237.91h0c-38.14,0-69.06-30.9-69.07-69.04V61.4h138.14v107.45c0,38.14-30.9,69.06-69.04,69.07h-.03Z" isolation="isolate" opacity=".07"/><rect x="859.56" y="460.48" width="122.79" height="122.79" rx="15.35" ry="15.35" fill="#f7ba72"/><rect x="859.56" y="675.37" width="122.79" height="122.79" rx="15.35" ry="15.35" fill="#f7ba72"/><rect x="613.97" y="460.48" width="122.79" height="122.79" rx="15.35" ry="15.35" fill="#fff"/><rect x="368.38" y="460.48" width="122.79" height="122.79" rx="15.35" ry="15.35" fill="#fff"/><rect x="122.79" y="460.48" width="122.79" height="122.79" rx="15.35" ry="15.35" fill="#fff"/><rect x="613.97" y="675.37" width="122.79" height="122.79" rx="15.35" ry="15.35" fill="#fff"/><rect x="368.38" y="675.37" width="122.79" height="122.79" rx="15.35" ry="15.35" fill="#fff"/><rect x="122.79" y="675.37" width="122.79" height="122.79" rx="15.35" ry="15.35" fill="#fff"/><rect x="613.97" y="890.26" width="122.79" height="122.79" rx="15.35" ry="15.35" fill="#fff"/><rect x="368.38" y="890.26" width="122.79" height="122.79" rx="15.35" ry="15.35" fill="#fff"/><rect x="122.79" y="890.26" width="122.79" height="122.79" rx="15.35" ry="15.35" fill="#fff"/><path d="m905.61,214.89h0c-25.43,0-46.04-20.62-46.05-46.05V46.05c0-25.43,20.62-46.04,46.05-46.05h0c25.43,0,46.04,20.62,46.05,46.05v122.79c0,25.43-20.62,46.04-46.05,46.05Z" fill="url(#d)"/></svg>