<svg xmlns="http://www.w3.org/2000/svg" xmlns:xlink="http://www.w3.org/1999/xlink" width="56.06" height="48.323" viewBox="0 0 56.06 48.323">
  <defs>
    <linearGradient id="linear-gradient" x1="0.499" y1="1.03" x2="0.501" y2="0.029" gradientUnits="objectBoundingBox">
      <stop offset="0" stop-color="#dbf1ff"/>
      <stop offset="1" stop-color="#fff"/>
    </linearGradient>
    <filter id="dashboard-icon" x="0" y="0" width="56.06" height="48.323" filterUnits="userSpaceOnUse">
      <feOffset dy="3" input="SourceAlpha"/>
      <feGaussianBlur stdDeviation="3" result="blur"/>
      <feFlood flood-opacity="0.161"/>
      <feComposite operator="in" in2="blur"/>
      <feComposite in="SourceGraphic"/>
    </filter>
  </defs>
  <g transform="matrix(1, 0, 0, 1, 0, 0)" filter="url(#dashboard-icon)">
    <path id="dashboard-icon-2" data-name="dashboard-icon" d="M92.012,29.323c-3.124-.049-5.619-2.071-5.608-4.544V20.354c-.031-2.475,2.478-4.5,5.608-4.53H97.5c3.126.037,5.635,2.056,5.631,4.53v4.431c0,2.471-2.5,4.486-5.62,4.538Zm-2.6-8.97v4.431a1.9,1.9,0,0,0,.757,1.489,2.9,2.9,0,0,0,1.823.618h5.524a2.9,2.9,0,0,0,1.823-.618,1.892,1.892,0,0,0,.754-1.489V20.354a1.912,1.912,0,0,0-.761-1.483,2.923,2.923,0,0,0-1.836-.618H92.013a2.384,2.384,0,0,0-2.588,2.1h-.01ZM71.683,29.306c-3.1-.081-5.575-2.079-5.613-4.535V20.354a4.142,4.142,0,0,1,1.649-3.208,6.347,6.347,0,0,1,3.976-1.322h2.252a1.651,1.651,0,0,1,1.443.566,1.025,1.025,0,0,1,0,1.3,1.652,1.652,0,0,1-1.443.568H71.7a2.4,2.4,0,0,0-2.617,2.1v4.376a2.456,2.456,0,0,0,2.617,2.1h5.52a2.931,2.931,0,0,0,1.846-.618,1.913,1.913,0,0,0,.767-1.489V18.165a1.145,1.145,0,0,1,.678-1.256,1.816,1.816,0,0,1,1.7.038,1.113,1.113,0,0,1,.585,1.285v6.543c.031,2.483-2.485,4.515-5.623,4.542h0l-5.483-.01ZM95.307,13.548c-.849-.088-1.448-.7-1.335-1.375a1.42,1.42,0,0,1,1.335-1.057h2.2a2.942,2.942,0,0,0,1.848-.633,1.924,1.924,0,0,0,.747-1.507V4.546a2.418,2.418,0,0,0-2.6-2.1h-5.5a2.383,2.383,0,0,0-2.6,2.083v6.641a1.421,1.421,0,0,1-1.548,1.2,1.68,1.68,0,0,1-1.055-.378,1.085,1.085,0,0,1-.4-.873V4.546a4.136,4.136,0,0,1,1.637-3.212A6.346,6.346,0,0,1,92.012,0H97.5c3.1.084,5.575,2.086,5.608,4.544V8.961a4.112,4.112,0,0,1-1.592,3.218,6.319,6.319,0,0,1-3.944,1.367H95.306Zm-18.119-.041H71.695c-3.127-.041-5.632-2.062-5.625-4.536V4.539c0-2.472,2.5-4.49,5.627-4.538h5.492C80.318.044,82.82,2.069,82.8,4.545V8.97a4.11,4.11,0,0,1-1.649,3.206A6.309,6.309,0,0,1,77.188,13.5ZM69.823,3.049a1.934,1.934,0,0,0-.781,1.5V8.97A1.914,1.914,0,0,0,69.8,10.5a2.942,2.942,0,0,0,1.831.618h5.552a2.925,2.925,0,0,0,1.851-.633,1.909,1.909,0,0,0,.747-1.507V4.539a2.415,2.415,0,0,0-2.6-2.1H71.643a2.926,2.926,0,0,0-1.818.6l0,0Z" transform="translate(-56.57 6.5)" stroke="rgba(170,221,255,0.55)" stroke-width="1" fill="url(#linear-gradient)"/>
  </g>
</svg>
