<?xml version="1.0" encoding="UTF-8"?><svg id="a" xmlns="http://www.w3.org/2000/svg" xmlns:xlink="http://www.w3.org/1999/xlink" viewBox="0 0 386.87 320.81"><defs><linearGradient id="b" x1="226.12" y1="330.42" x2="226.78" y2="9.33" gradientUnits="userSpaceOnUse"><stop offset="0" stop-color="#dbf1ff"/><stop offset="1" stop-color="#fff"/></linearGradient></defs><path id="c" d="m290.63,320.81c-27.04-.54-48.64-22.66-48.54-49.71v-48.42c-.27-27.08,21.45-49.26,48.54-49.56h47.5c27.06.41,48.78,22.49,48.74,49.56v48.48c-.01,27.03-21.63,49.08-48.65,49.65h-47.59Zm-22.49-98.13v48.48c-.06,6.08,2.3,11.94,6.55,16.29,4.12,4.3,9.82,6.74,15.78,6.76h47.82c5.96-.02,11.65-2.46,15.78-6.76,4.25-4.35,6.6-10.21,6.53-16.29v-48.48c.02-6.06-2.35-11.89-6.59-16.23-4.16-4.31-9.9-6.75-15.89-6.76h-47.48c-12.52.19-22.54,10.46-22.4,22.98h-.09Zm-153.48,97.94c-26.86-.89-48.26-22.74-48.59-49.61v-48.33c-.02-13.12,5.1-25.72,14.27-35.1,9.05-9.27,21.47-14.48,34.42-14.46h19.49c5.01-.54,9.88,1.88,12.49,6.19,2.67,4.35,2.67,9.84,0,14.19-2.61,4.32-7.48,6.74-12.49,6.21h-19.47c-12.58.11-22.7,10.37-22.65,22.95v47.88c.2,12.47,10.17,22.59,22.65,22.95h47.78c6.02.01,11.79-2.43,15.98-6.76,4.27-4.34,6.66-10.19,6.64-16.29v-71.71c-.98-5.34,1.33-10.75,5.87-13.74,4.5-2.94,10.35-2.77,14.68.42,4.36,3.24,6.35,8.78,5.06,14.06v71.58c.27,27.16-21.51,49.4-48.67,49.69h0l-47.46-.11Zm204.49-172.4c-7.35-.96-12.53-7.7-11.56-15.04.79-6.03,5.53-10.78,11.56-11.56h19.06c6.05-.05,11.83-2.55,16-6.93,4.23-4.44,6.56-10.36,6.47-16.49v-48.46c-.04-12.48-10-22.65-22.48-22.95h-47.57c-12.51.08-22.58,10.29-22.5,22.79,0,.05,0,.1,0,.15v72.5c-.15,7.28-6.11,13.1-13.4,13.08-3.48-.08-6.77-1.58-9.13-4.13-2.36-2.61-3.6-6.04-3.45-9.55V49.74c-.06-13.12,5.03-25.73,14.17-35.14C265.33,5.32,277.69.05,290.63,0h47.5c26.87.92,48.26,22.82,48.54,49.71v48.33c.18,13.09-4.76,25.73-13.78,35.21-8.91,9.37-21.21,14.77-34.14,14.96h-19.61Zm-156.84-.45h-47.55c-27.07-.45-48.75-22.56-48.69-49.63v-48.48c.02-27.05,21.66-49.12,48.71-49.65h47.54c27.08.47,48.74,22.63,48.61,49.71v48.42c.06,13.12-5.07,25.73-14.27,35.08-9.01,9.3-21.4,14.54-34.35,14.53v.02Zm-63.75-114.41c-4.32,4.36-6.75,10.24-6.76,16.38v48.4c-.12,6.22,2.25,12.22,6.59,16.68,4.16,4.29,9.88,6.72,15.85,6.76h48.06c6.06-.03,11.85-2.53,16.02-6.93,4.25-4.43,6.58-10.36,6.47-16.49v-48.5c-.02-12.49-10.01-22.68-22.49-22.95h-47.99c-5.92,0-11.59,2.39-15.74,6.6l-.02.04Z" fill="url(#b)"/></svg>