<?xml version="1.0" encoding="utf-8"?>
<!-- Generator: Adobe Illustrator 27.6.1, SVG Export Plug-In . SVG Version: 6.00 Build 0)  -->
<svg version="1.1" xmlns="http://www.w3.org/2000/svg" xmlns:xlink="http://www.w3.org/1999/xlink" x="0px" y="0px"
	 viewBox="0 0 374.7 351.5" style="enable-background:new 0 0 374.7 351.5;" xml:space="preserve">
<style type="text/css">
	.st0{fill:url(#dashboard_icon_00000009567416092809920030000008676865613382321847_);}
	.st1{display:none;}
	.st2{display:inline;fill:#5CB3FF;}
	.st3{display:inline;fill:#AADDFF;}
	.st4{display:inline;fill:#144885;}
	.st5{display:inline;fill:#FFC37E;}
	.st6{display:inline;fill:#FF9F65;}
	.st7{display:inline;fill:#0265BA;}
</style>
<g id="Layer_1">
	
		<linearGradient id="dashboard_icon_00000159450372490829756220000007867420687232928161_" gradientUnits="userSpaceOnUse" x1="186.2613" y1="343.5465" x2="186.9209" y2="22.4563">
		<stop  offset="0" style="stop-color:#DBF1FF"/>
		<stop  offset="1" style="stop-color:#FFFFFF"/>
	</linearGradient>
	<path id="dashboard_icon" style="fill:url(#dashboard_icon_00000159450372490829756220000007867420687232928161_);" d="
		M250.8,333.9c-27-0.5-48.6-22.7-48.5-49.7v-48.4c-0.3-27.1,21.5-49.3,48.5-49.6h47.5c27.1,0.4,48.8,22.5,48.7,49.6v48.5
		c0,27-21.6,49.1-48.6,49.6H250.8z M228.3,235.8v48.5c-0.1,6.1,2.3,11.9,6.5,16.3c4.1,4.3,9.8,6.7,15.8,6.8h47.8
		c6,0,11.7-2.5,15.8-6.8c4.2-4.3,6.6-10.2,6.5-16.3v-48.5c0-6.1-2.3-11.9-6.6-16.2c-4.2-4.3-9.9-6.7-15.9-6.8h-47.5
		C238.2,213,228.2,223.3,228.3,235.8L228.3,235.8z M74.8,333.7c-26.9-0.9-48.3-22.7-48.6-49.6v-48.3c0-13.1,5.1-25.7,14.3-35.1
		c9.1-9.3,21.5-14.5,34.4-14.5h19.5c5-0.5,9.9,1.9,12.5,6.2c2.7,4.4,2.7,9.8,0,14.2c-2.6,4.3-7.5,6.7-12.5,6.2H74.9
		c-12.6,0.1-22.7,10.4-22.6,22.9v47.9c0.2,12.5,10.2,22.6,22.6,22.9h47.8c6,0,11.8-2.4,16-6.8c4.3-4.3,6.7-10.2,6.6-16.3v-71.7
		c-1-5.3,1.3-10.8,5.9-13.7c4.5-2.9,10.4-2.8,14.7,0.4c4.4,3.2,6.4,8.8,5.1,14.1v71.6c0.3,27.2-21.5,49.4-48.7,49.7l0,0L74.8,333.7z
		 M279.3,161.3c-7.3-1-12.5-7.7-11.6-15c0.8-6,5.5-10.8,11.6-11.6h19.1c6.1,0,11.8-2.5,16-6.9c4.2-4.4,6.6-10.4,6.5-16.5V62.8
		c0-12.5-10-22.7-22.5-22.9h-47.6c-12.5,0.1-22.6,10.3-22.5,22.8c0,0.1,0,0.1,0,0.2v72.5c-0.2,7.3-6.1,13.1-13.4,13.1
		c-3.5-0.1-6.8-1.6-9.1-4.1c-2.4-2.6-3.6-6-3.5-9.5V62.9c-0.1-13.1,5-25.7,14.2-35.1c9-9.3,21.4-14.6,34.3-14.6h47.5
		c26.9,0.9,48.3,22.8,48.5,49.7v48.3c0.2,13.1-4.8,25.7-13.8,35.2c-8.9,9.4-21.2,14.8-34.1,15H279.3z M122.4,160.9H74.9
		c-27.1-0.5-48.8-22.6-48.7-49.6V62.8c0-27,21.7-49.1,48.7-49.6h47.5c27.1,0.5,48.7,22.6,48.6,49.7v48.4
		c0.1,13.1-5.1,25.7-14.3,35.1C147.8,155.6,135.4,160.9,122.4,160.9L122.4,160.9z M58.7,46.5c-4.3,4.4-6.7,10.2-6.8,16.4v48.4
		c-0.1,6.2,2.2,12.2,6.6,16.7c4.2,4.3,9.9,6.7,15.9,6.8h48.1c6.1,0,11.8-2.5,16-6.9c4.2-4.4,6.6-10.4,6.5-16.5V62.8
		c0-12.5-10-22.7-22.5-22.9h-48C68.5,39.8,62.9,42.2,58.7,46.5L58.7,46.5z"/>
</g>
<g id="Layer_2" class="st1">
	<rect x="-39.9" y="88.6" class="st2" width="23.3" height="23.3"/>
	<rect x="-39.9" y="63.6" class="st3" width="23.3" height="23.3"/>
	<rect x="-39.9" y="113.6" class="st4" width="23.3" height="23.3"/>
	<rect x="-39.9" y="138.6" class="st5" width="23.3" height="23.3"/>
	<rect x="-39.9" y="188.6" class="st6" width="23.3" height="23.3"/>
	<rect x="-39.9" y="163.6" class="st7" width="23.3" height="23.3"/>
</g>
</svg>
