<svg xmlns="http://www.w3.org/2000/svg" xmlns:xlink="http://www.w3.org/1999/xlink" width="60" height="60" viewBox="0 0 60 60">
  <defs>
    <linearGradient id="linear-gradient" x1="0.5" x2="0.5" y2="1" gradientUnits="objectBoundingBox">
      <stop offset="0" stop-color="#2699fb"/>
      <stop offset="1" stop-color="#027ce3"/>
    </linearGradient>
  </defs>
  <g id="Facebook" transform="translate(-295 -735)">
    <g id="Base" transform="translate(295 735)" fill="none">
      <path d="M30,0A30,30,0,1,1,0,30,30,30,0,0,1,30,0Z" stroke="none"/>
      <path d="M 30 2 C 26.21913909912109 2 22.55244064331055 2.740039825439453 19.10174942016602 4.199558258056641 C 15.76776885986328 5.609710693359375 12.77312850952148 7.628890991210938 10.20101165771484 10.20101165771484 C 7.628890991210938 12.77312850952148 5.609710693359375 15.76776885986328 4.199558258056641 19.10174942016602 C 2.740039825439453 22.55244064331055 2 26.21913909912109 2 30 C 2 33.78086090087891 2.740039825439453 37.44755935668945 4.199558258056641 40.89825057983398 C 5.609710693359375 44.23223114013672 7.628890991210938 47.22686767578125 10.20101165771484 49.79898834228516 C 12.77312850952148 52.37110900878906 15.76776885986328 54.39028930664062 19.10174942016602 55.80043792724609 C 22.55244064331055 57.25996017456055 26.21913909912109 58 30 58 C 33.78086090087891 58 37.44755935668945 57.25996017456055 40.89825057983398 55.80043792724609 C 44.23223114013672 54.39028930664062 47.22686767578125 52.37110900878906 49.79898834228516 49.79898834228516 C 52.37110900878906 47.22686767578125 54.39028930664062 44.23223114013672 55.80043792724609 40.89825057983398 C 57.25996017456055 37.44755935668945 58 33.78086090087891 58 30 C 58 26.21913909912109 57.25996017456055 22.55244064331055 55.80043792724609 19.10174942016602 C 54.39028930664062 15.76776885986328 52.37110900878906 12.77312850952148 49.79898834228516 10.20101165771484 C 47.22686767578125 7.628890991210938 44.23223114013672 5.609710693359375 40.89825057983398 4.199558258056641 C 37.44755935668945 2.740039825439453 33.78086090087891 2 30 2 M 30 0 C 46.56853866577148 0 60 13.43146133422852 60 30 C 60 46.56853866577148 46.56853866577148 60 30 60 C 13.43146133422852 60 0 46.56853866577148 0 30 C 0 13.43146133422852 13.43146133422852 0 30 0 Z" stroke="none" fill="#c8d6df"/>
    </g>
    <g id="ic_facebook" transform="translate(-1190 261)">
      <rect id="Base-2" data-name="Base" width="30" height="30" transform="translate(1500 489)" fill="none"/>
      <path id="Icon" d="M1096.842-46v-8.211h2.656l.395-3.2h-3.051v-2.044c0-.925.247-1.557,1.525-1.557H1100v-2.864a20.4,20.4,0,0,0-2.375-.125c-2.356,0-3.962,1.495-3.962,4.234V-57.4H1091v3.2h2.663V-46Z" transform="translate(420 559)" fill-rule="evenodd" fill="url(#linear-gradient)"/>
    </g>
  </g>
</svg>
