<?xml version="1.0" encoding="UTF-8"?><svg xmlns="http://www.w3.org/2000/svg" xmlns:xlink="http://www.w3.org/1999/xlink" viewBox="0 0 538.57 454.53"><defs><linearGradient id="uuid-b5f6bfc7-21d4-4ea4-b9f4-0103a838dc4c" x1="69.6" y1="131.51" x2="384.88" y2="323.03" gradientUnits="userSpaceOnUse"><stop offset="0" stop-color="#144885"/><stop offset=".5" stop-color="#5cb3ff"/><stop offset=".62" stop-color="#5cb3ff"/><stop offset=".69" stop-color="#59affb"/><stop offset=".76" stop-color="#52a5ef"/><stop offset=".83" stop-color="#4693db"/><stop offset=".89" stop-color="#367abf"/><stop offset=".96" stop-color="#215b9b"/><stop offset="1" stop-color="#144885"/></linearGradient><linearGradient id="uuid-44c7421d-0fd7-4ea2-8ed2-e01b4affea51" x1="50.19" y1="50.12" x2="359.11" y2="237.77" gradientTransform="translate(62.57 38.88) rotate(13.72)" gradientUnits="userSpaceOnUse"><stop offset="0" stop-color="#0265ba"/><stop offset=".41" stop-color="#5cb3ff"/><stop offset=".65" stop-color="#5cb3ff"/><stop offset=".73" stop-color="#58affb"/><stop offset=".8" stop-color="#4ca5f2"/><stop offset=".87" stop-color="#3893e3"/><stop offset=".95" stop-color="#1c7bce"/><stop offset="1" stop-color="#0265ba"/></linearGradient><linearGradient id="uuid-2e8de322-eb1a-4bf2-8204-8c3746df65e7" x1="66.5" y1="66.42" x2="388.09" y2="388.01" gradientUnits="userSpaceOnUse"><stop offset="0" stop-color="#0265ba"/><stop offset=".42" stop-color="#5cb3ff"/><stop offset=".69" stop-color="#5cb3ff"/><stop offset=".75" stop-color="#58affb"/><stop offset=".82" stop-color="#4ca5f2"/><stop offset=".88" stop-color="#3893e3"/><stop offset=".95" stop-color="#1c7bce"/><stop offset="1" stop-color="#0265ba"/></linearGradient></defs><g id="uuid-e9ba7573-7ed1-40aa-9338-60dc46501c75"><path d="m227.38,411.67c-14.7,0-29.46-1.79-43.88-5.31-47.84-11.68-88.26-41.29-113.83-83.38-25.57-42.09-33.21-91.61-21.53-139.45C68.37,100.71,141.96,42.87,227.1,42.87c14.7,0,29.47,1.78,43.88,5.3,47.84,11.68,88.26,41.3,113.83,83.38,25.57,42.09,33.21,91.61,21.53,139.45-20.23,82.82-93.81,140.66-178.95,140.66h0Z" fill="url(#uuid-b5f6bfc7-21d4-4ea4-b9f4-0103a838dc4c)"/><path d="m402.79,270.14c-23.68,96.95-121.46,156.35-218.41,132.68-96.95-23.68-156.35-121.47-132.67-218.42C75.37,87.45,173.16,28.05,270.11,51.72c96.95,23.68,156.35,121.46,132.67,218.42Z" fill="url(#uuid-44c7421d-0fd7-4ea2-8ed2-e01b4affea51)"/><path d="m227.41,454.53c-18.12,0-36.31-2.2-54.07-6.53C51.63,418.27-23.21,295.07,6.51,173.36,31.44,71.29,122.14,0,227.07,0c18.12,0,36.32,2.2,54.07,6.54,58.96,14.4,108.79,50.9,140.29,102.77,31.51,51.87,40.93,112.91,26.53,171.87-24.93,102.07-115.62,173.36-220.56,173.36h0Zm-.34-432.35c-94.68,0-176.51,64.33-199.01,156.44-26.82,109.83,40.71,221,150.54,247.82,16.04,3.92,32.46,5.9,48.81,5.9,94.67,0,176.51-64.33,199.01-156.45,12.99-53.2,4.49-108.27-23.94-155.08-28.43-46.8-73.39-79.74-126.59-92.73-16.04-3.92-32.47-5.9-48.81-5.9h0Z" fill="url(#uuid-2e8de322-eb1a-4bf2-8204-8c3746df65e7)"/><polygon points="101.78 232.3 124.22 232.3 225.98 131.95 327.57 232.3 350.02 232.3 225.9 106.49 101.78 232.3" fill="#fff"/><polygon points="269.47 101.58 293.24 101.58 293.24 185.82 269.16 155.15 269.47 101.58" fill="#fff"/><path d="m225.98,150.44l-79.14,76.48v101.07h50.02v-40.73s.49-28.13,29.13-27.91c28.49.22,27.65,27.91,27.65,27.91v40.73h51.5v-95.68l-79.15-81.87Z" fill="#fff"/></g><g id="uuid-160c5935-bc29-4d93-8ecf-c9e24d2c4da5"><rect x="495.13" y="145.04" width="43.44" height="43.44" fill="#5cb3ff"/><rect x="495.13" y="96.09" width="43.44" height="43.44" fill="#adf"/><rect x="495.13" y="191.65" width="43.44" height="43.44" fill="#144885"/><rect x="495.13" y="240.35" width="43.44" height="43.44" fill="#0265ba"/><rect x="495.13" y="290.9" width="43.44" height="43.44" fill="#ffc37e"/></g></svg>