<svg id="Liked-Icon_ionic-md-thumbs-up" data-name="Liked-Icon ionic-md-thumbs-up" xmlns="http://www.w3.org/2000/svg" width="22.296" height="20.586" viewBox="0 0 22.296 20.586">
  <path id="Path_224" data-name="Path 224" d="M13.287,25.086h9.221a1.967,1.967,0,0,0,1.833-1.254L27.4,16.573a2.052,2.052,0,0,0,.139-.751V13.753a2.365,2.365,0,0,0-2.026-2.391h-6.39l.965-4.369.032-.322a1.554,1.554,0,0,0-.445-1.088L18.594,4.5,11.84,11.324a2.064,2.064,0,0,0-.59,1.453V23.07A2.021,2.021,0,0,0,13.287,25.086Z" transform="translate(-5.246 -4.5)" fill="#fff"/>
  <path id="Path_225" data-name="Path 225" d="M3.375,15.75H6.806V27.758H3.375Z" transform="translate(-3.375 -7.173)" fill="#fff"/>
</svg>
