<?xml version="1.0" encoding="UTF-8"?><svg id="uuid-3ea250fd-bcd8-45bd-9a9d-1d68a212e352" xmlns="http://www.w3.org/2000/svg" xmlns:xlink="http://www.w3.org/1999/xlink" viewBox="0 0 555.06 739"><defs><linearGradient id="uuid-704df3a9-cd7d-4be1-80ad-da9c9967deee" x1="100.24" y1="273.65" x2="454.82" y2="273.65" gradientUnits="userSpaceOnUse"><stop offset="0" stop-color="#8abfff"/><stop offset=".52" stop-color="#0057bf"/><stop offset="1" stop-color="#001733"/></linearGradient><linearGradient id="uuid-062547a5-5c8f-438f-a9ca-44d064ea4143" x1="62.9" y1="283.51" x2="477.34" y2="697.95" gradientUnits="userSpaceOnUse"><stop offset="0" stop-color="#91caff"/><stop offset="1" stop-color="#1f4b91"/></linearGradient><linearGradient id="uuid-1552cfff-da68-40ce-a79d-0a696cd2c8e7" x1="256.56" y1="485.53" x2="372.76" y2="566.82" gradientUnits="userSpaceOnUse"><stop offset="0" stop-color="#6085a8"/><stop offset=".54" stop-color="#324e70"/><stop offset="1" stop-color="#0f2445"/></linearGradient></defs><path d="m424.89,545.29c-16.53,0-29.93-13.4-29.93-29.93V179.29c0-64.75-52.68-117.43-117.43-117.43s-117.43,52.68-117.43,117.43v336.08c0,16.53-13.4,29.93-29.93,29.93s-29.93-13.4-29.93-29.93V179.29C100.24,81.53,179.77,2,277.53,2s177.29,79.53,177.29,177.29v336.08c0,16.53-13.4,29.93-29.93,29.93Z" fill="url(#uuid-704df3a9-cd7d-4be1-80ad-da9c9967deee)" stroke="#9eafe8" stroke-miterlimit="10" stroke-width="4"/><path d="m543.66,368c-9.11-52-53.13-92.11-108.25-99.76-105.26-14.62-210.51-14.62-315.77,0-55.12,7.65-99.15,47.76-108.25,99.76-15.19,86.76-15.19,173.52,0,260.28,9.11,52,53.13,92.11,108.25,99.76,105.26,14.62,210.51,14.62,315.77,0,55.12-7.65,99.15-47.76,108.25-99.76,15.19-86.76,15.19-173.52,0-260.28Z" fill="url(#uuid-062547a5-5c8f-438f-a9ca-44d064ea4143)"/><path d="m347.34,418.55c0-38.75-31.41-70.16-70.17-70.16s-70.16,31.41-70.16,70.16c0,25.19,13.39,47.1,33.33,59.48v144c0,20.34,16.49,36.84,36.84,36.84s36.84-16.49,36.84-36.84v-144c19.94-12.38,33.33-34.29,33.33-59.48Z" fill="url(#uuid-1552cfff-da68-40ce-a79d-0a696cd2c8e7)" stroke="#617c9e" stroke-miterlimit="10" stroke-width="6"/></svg>