<?xml version="1.0" encoding="UTF-8"?><svg id="uuid-42ca3508-e25a-47c9-97ed-408341ae36a2" xmlns="http://www.w3.org/2000/svg" xmlns:xlink="http://www.w3.org/1999/xlink" viewBox="0 0 752.3 774"><defs><linearGradient id="uuid-bb3ec9e0-1677-425a-b49d-d6842bcd6e47" x1="4.82" y1="376.15" x2="747.48" y2="376.15" gradientUnits="userSpaceOnUse"><stop offset="0" stop-color="#5cb4ff"/><stop offset="1" stop-color="#9cd1ff"/></linearGradient><linearGradient id="uuid-f18a73e7-96c2-4aa8-a289-72022f2eac07" x1="162.81" y1="397.89" x2="528.89" y2="397.89" gradientUnits="userSpaceOnUse"><stop offset="0" stop-color="#134884"/><stop offset="1" stop-color="#048bff"/></linearGradient><linearGradient id="uuid-19e4e35f-b92b-40a6-a590-1c2a2bb3217d" x1="395.51" y1="397.89" x2="641.31" y2="397.89" gradientUnits="userSpaceOnUse"><stop offset="0" stop-color="#134884"/><stop offset="1" stop-color="#0365b9"/></linearGradient></defs><circle cx="376.15" cy="397.85" r="376.15" fill="#4485bd"/><circle cx="376.15" cy="376.15" r="376.15" fill="#abddff"/><path d="m376.15,747.48c-99.19,0-192.43-38.63-262.57-108.76C43.45,568.58,4.82,475.33,4.82,376.15S43.45,183.72,113.58,113.58C183.72,43.45,276.96,4.82,376.15,4.82s192.43,38.62,262.57,108.76c70.13,70.13,108.76,163.38,108.76,262.57s-38.63,192.43-108.76,262.57c-70.13,70.13-163.38,108.76-262.57,108.76Z" fill="url(#uuid-bb3ec9e0-1677-425a-b49d-d6842bcd6e47)"/><path d="m512.08,443.83c-9.29,0-16.81,7.53-16.81,16.81v96.98c0,8.93-7.27,16.2-16.2,16.2h-112V221.95h112c8.93,0,16.2,7.25,16.2,16.19v97c0,9.29,7.53,16.81,16.81,16.81s16.81-7.53,16.81-16.81v-97c0-27.46-22.35-49.81-49.83-49.81h-118.5c-2.95-4.88-6.84-9.22-11.58-12.78-11.5-8.66-26.02-11.34-39.84-7.37l-113.49,32.63c-19.34,5.56-32.84,23.49-32.84,43.62v306.92c0,20.13,13.5,38.06,32.84,43.62l113.49,32.63c4.18,1.2,8.44,1.79,12.67,1.79,9.69,0,19.17-3.14,27.17-9.16,4.74-3.55,8.63-7.89,11.58-12.78h118.5c27.48,0,49.83-22.35,49.83-49.83v-96.98c0-9.29-7.53-16.81-16.81-16.81Zm-200.8-28.47c-9.72,0-17.61-7.88-17.61-17.61s7.89-17.61,17.61-17.61,17.61,7.89,17.61,17.61-7.88,17.61-17.61,17.61Z" fill="url(#uuid-f18a73e7-96c2-4aa8-a289-72022f2eac07)"/><path d="m641.23,396.26c-.02-.23-.06-.44-.09-.67-.04-.31-.08-.62-.14-.93-.05-.26-.12-.51-.18-.77-.06-.27-.13-.53-.2-.8-.08-.26-.17-.51-.26-.77-.09-.25-.18-.51-.28-.76-.1-.25-.21-.48-.32-.72-.12-.25-.23-.5-.36-.75-.12-.23-.25-.46-.39-.68-.14-.24-.28-.48-.43-.71-.15-.23-.31-.44-.47-.66-.16-.22-.31-.43-.48-.64-.18-.23-.37-.44-.56-.66-.12-.14-.23-.28-.35-.41l-59.41-62.75c-6.38-6.74-17.02-7.03-23.77-.65-6.74,6.38-7.03,17.03-.65,23.77l32.55,34.38h-173.1c-9.29,0-16.81,7.53-16.81,16.81s7.53,16.81,16.81,16.81h173.1l-32.55,34.38c-6.38,6.74-6.09,17.38.65,23.77,3.25,3.08,7.41,4.6,11.56,4.6,4.46,0,8.91-1.76,12.21-5.25l59.41-62.75c.13-.13.23-.28.35-.41.19-.22.38-.43.56-.66.17-.21.32-.43.48-.64.16-.22.32-.44.47-.66.15-.23.29-.47.43-.71.13-.22.26-.45.39-.68.13-.25.24-.5.36-.75.11-.24.22-.48.32-.72.1-.25.19-.51.28-.76.09-.25.18-.51.26-.77.08-.26.14-.53.2-.8.06-.26.13-.51.18-.77.06-.31.1-.62.14-.93.03-.22.07-.44.09-.67.11-1.09.11-2.18,0-3.27Z" fill="url(#uuid-19e4e35f-b92b-40a6-a590-1c2a2bb3217d)"/><path d="m512.08,435.38c-9.29,0-16.81,7.53-16.81,16.81v96.98c0,8.93-7.27,16.2-16.2,16.2h-112V213.5h112c8.93,0,16.2,7.25,16.2,16.19v97c0,9.29,7.53,16.81,16.81,16.81s16.81-7.53,16.81-16.81v-97c0-27.46-22.35-49.81-49.83-49.81h-118.5c-2.95-4.88-6.84-9.22-11.58-12.78-11.5-8.66-26.02-11.34-39.84-7.37l-113.49,32.63c-19.34,5.56-32.84,23.49-32.84,43.62v306.92c0,20.13,13.5,38.06,32.84,43.62l113.49,32.63c4.18,1.2,8.44,1.79,12.67,1.79,9.69,0,19.17-3.14,27.17-9.16,4.74-3.55,8.63-7.89,11.58-12.78h118.5c27.48,0,49.83-22.35,49.83-49.83v-96.98c0-9.29-7.53-16.81-16.81-16.81Zm-200.8-28.47c-9.72,0-17.61-7.88-17.61-17.61s7.89-17.61,17.61-17.61,17.61,7.89,17.61,17.61-7.88,17.61-17.61,17.61Z" fill="#fff"/><path d="m641.23,387.81c-.02-.23-.06-.44-.09-.67-.04-.31-.08-.62-.14-.93-.05-.26-.12-.51-.18-.77-.06-.27-.13-.53-.2-.8-.08-.26-.17-.51-.26-.77-.09-.25-.18-.51-.28-.76-.1-.25-.21-.48-.32-.72-.12-.25-.23-.5-.36-.75-.12-.23-.25-.46-.39-.68-.14-.24-.28-.48-.43-.71-.15-.23-.31-.44-.47-.66-.16-.22-.31-.43-.48-.64-.18-.23-.37-.44-.56-.66-.12-.14-.23-.28-.35-.41l-59.41-62.75c-6.38-6.74-17.02-7.03-23.77-.65-6.74,6.38-7.03,17.03-.65,23.77l32.55,34.38h-173.1c-9.29,0-16.81,7.53-16.81,16.81s7.53,16.81,16.81,16.81h173.1l-32.55,34.38c-6.38,6.74-6.09,17.38.65,23.77,3.25,3.08,7.41,4.6,11.56,4.6,4.46,0,8.91-1.76,12.21-5.25l59.41-62.75c.13-.13.23-.28.35-.41.19-.22.38-.43.56-.66.17-.21.32-.43.48-.64.16-.22.32-.44.47-.66.15-.23.29-.47.43-.71.13-.22.26-.45.39-.68.13-.25.24-.5.36-.75.11-.24.22-.48.32-.72.1-.25.19-.51.28-.76.09-.25.18-.51.26-.77.08-.26.14-.53.2-.8.06-.26.13-.51.18-.77.06-.31.1-.62.14-.93.03-.22.07-.44.09-.67.11-1.09.11-2.18,0-3.27Z" fill="#ffc37d"/></svg>