<?xml version="1.0" encoding="UTF-8"?><svg id="a" xmlns="http://www.w3.org/2000/svg" viewBox="0 0 1365.87 1268.32"><path d="m121.1.73C125.6.48,130.2,0,134.79,0c378.55.04,757.1.09,1135.65.2,67.26.02,95.35,28.12,95.35,95.02.03,361.91.05,723.82.07,1085.73,0,55.9-30.04,86.11-86.27,86.07-365.22-.24-730.43-.58-1095.65-.89-20.37-.02-40.74,0-62.85,0V.73Zm599.84,332.47v.23c96.96,0,193.92.03,290.87,0,89.45-.03,80.21,8.69,80.61-79.45.11-24.84-10.07-34.98-34.92-34.93-209.12.42-418.25.2-627.38.33-88.6.06-80.1-7.16-79.71,80.73.1,22.99,10.51,33.39,34.02,33.3,112.17-.44,224.33-.2,336.5-.2Zm1.71,202.14c97.45,0,194.9.06,292.35-.02,83.27-.06,77.2,8.79,77.51-77.24.09-26.26-10.19-36.63-36.39-36.57-207.73.49-415.47.23-623.2.35-93.04.06-81.98-8.41-82.29,82.23-.07,21.31,9.87,31.32,31.19,31.29,113.61-.14,227.22-.07,340.84-.05Zm-.03,401.84c96.53,0,193.07,0,289.6,0,88.09,0,79.84,8.93,80.15-78.64.09-24.71-10.34-35.32-35.03-35.28-208.76.31-417.52.14-626.28.23-87.98.04-80.58-7.69-80.38,80.45.05,23.76,10.79,33.37,33.83,33.31,112.7-.28,225.4-.13,338.11-.07Zm.19-202.74v.16c95.54,0,191.07-.05,286.61.01,91.34.06,82.42,8.43,82.81-82.26.1-22.14-9.92-31.8-32-31.78-209.61.23-419.22.17-628.83.15-90.12,0-80.87-8.09-80.75,80.84.03,22.36,10.06,33.03,32.79,32.99,113.12-.24,226.25-.11,339.37-.11Z" fill="#ff8b15"/><path d="m84.17,1267.53c-41.13,6.71-82.39-30.46-82.74-75.87C.3,1048.53.18,905.38.07,762.23c-.16-226.38-.02-452.77.07-679.15C.17,33.89,38.78-3.82,84.17,2.58v1264.95Z" fill="#fff"/><path d="m720.94,333.2c-112.17,0-224.34-.25-336.5.2-23.5.09-33.92-10.31-34.02-33.3-.39-87.89-8.89-80.67,79.71-80.73,209.13-.14,418.25.09,627.38-.33,24.85-.05,35.03,10.09,34.92,34.93-.4,88.14,8.84,79.42-80.61,79.45-96.96.04-193.92,0-290.87,0v-.23Z" fill="#fff"/><path d="m722.65,535.31c-113.61,0-227.22-.08-340.84.07-21.32.03-31.26-9.98-31.19-31.29.31-90.64-10.76-82.18,82.29-82.23,207.73-.13,415.47.14,623.2-.35,26.21-.06,36.49,10.31,36.39,36.57-.31,86.03,5.76,77.18-77.51,77.24-97.45.07-194.9.02-292.35,0Z" fill="#fff"/><path d="m722.62,937.12c-112.7,0-225.4-.15-338.11.13-23.04.06-33.78-9.56-33.83-33.31-.2-88.13-7.6-80.41,80.38-80.45,208.76-.09,417.52.07,626.28-.23,24.69-.04,35.11,10.57,35.03,35.28-.31,87.57,7.94,78.65-80.15,78.64-96.53,0-193.07,0-289.6-.06Z" fill="#fff"/><path d="m722.81,734.44c-113.12,0-226.25-.13-339.37.11-22.73.05-32.76-10.62-32.79-32.99-.11-88.94-9.37-80.85,80.75-80.84,209.61.02,419.22.08,628.83-.15,22.08-.02,32.1,9.64,32,31.78-.39,90.7,8.53,82.32-82.81,82.26-95.54-.07-191.07-.01-286.61-.01v-.16Z" fill="#fff"/></svg>