<?xml version="1.0" encoding="UTF-8"?><svg id="a" xmlns="http://www.w3.org/2000/svg" viewBox="0 0 1459.82 1461.59"><path d="m733.88,768.33c39.08,39.08,52.99,77.05,60.05,97.14l77.72-44.16c-9.71-27.16-26.49-61.38-61.82-98.91l47.69-47.69-52.99-52.99-51.22,51.22c-69.11-47.25-140.64-43.05-188.99,5.3-52.77,52.77-40.4,120.11-1.77,197.82,26.49,53.87,31.13,85.44,10.6,105.98-21.2,21.2-55.42,11.48-86.55-19.43-35.33-35.33-54.98-79.48-65.35-114.81l-81.25,47.69c9.27,32.01,35.33,77.27,70.65,114.81l-52.99,52.99,52.99,52.99,56.52-56.52c73.96,52.1,149.47,44.82,197.82-3.53,49.46-49.68,52.99-104.43,10.6-192.52-29.36-63.14-36.87-93.83-19.43-111.27,15.23-15.23,42.39-19.43,77.72,15.9Z" fill="#ffab6c"/><path d="m1113.63,254.34c-14.13-1.77-29.14-3.75-44.16-5.3-.44,3.75-1.77,8.61-1.77,12.36,0,17.88,4.19,54.09,10.6,91.85,30.91,21.64,51.22,56.52,51.22,97.14,0,65.79-52.55,118.34-118.34,118.34s-118.34-52.55-118.34-118.34c0-24.73,6.62-48.13,19.43-67.12-7.29-42.83-14.13-90.3-14.13-121.87,0-8.17,1.1-16.56,1.77-24.73-61.38-3.09-118.78-4.19-162.5-3.53-43.72.66-72.64,1.99-77.72,7.07L29.14,870.77c-38.86,38.86-38.86,102.66,0,141.3l420.37,420.37c38.86,38.86,102.66,38.86,141.3,0l630.56-630.56c28.7-28.48,3.09-307.99-14.13-452.16-10.16-84.34-10.38-85.22-93.61-95.38Zm-319.69,611.13c-7.07-20.09-20.97-58.07-60.05-97.14-35.33-35.33-62.48-31.13-77.72-15.9-17.44,17.44-9.94,48.13,19.43,111.27,42.39,88.09,38.86,142.85-10.6,192.52-48.35,48.35-123.86,55.64-197.82,3.53l-56.52,56.52-52.99-52.99,52.99-52.99c-35.33-37.53-61.38-82.79-70.65-114.81l81.25-47.69c10.38,35.33,30.03,79.48,65.35,114.81,31.13,30.91,65.35,40.62,86.55,19.43,20.53-20.53,15.9-52.1-10.6-105.98-38.64-77.72-51-145.05,1.77-197.82,48.35-48.35,119.89-52.55,188.99-5.3l51.22-51.22,52.99,52.99-47.69,47.69c35.33,37.53,52.1,71.75,61.82,98.91l-77.72,44.16Z" fill="#005994"/><path d="m1200.18,0c-143.29,0-261.41,118.12-261.41,261.41,0,34.66,8.61,80.37,15.9,121.87,7.29,41.51,14.13,75.95,14.13,75.95,2.43,15.9,13.47,28.92,28.48,34.22,15.23,5.3,32.01,1.77,43.72-9.05,11.92-10.82,16.56-27.38,12.58-42.83,0,0-7.29-32.68-14.13-72.42-6.84-39.74-12.36-88.31-12.36-107.74,0-96.26,76.83-174.86,173.09-174.86,107.08,0,173.09,81.91,173.09,194.29,0,199.59-88.31,344.42-88.31,344.42-12.58,20.53-6.4,47.47,14.13,60.05,20.53,12.58,47.47,6.4,60.05-14.13,0,0,100.68-165.15,100.68-390.35C1459.82,130.48,1354.07,0,1200.18,0Z" fill="#69aaff"/></svg>