<?xml version="1.0" encoding="UTF-8"?><svg id="uuid-abfd53f0-d4ca-4908-8ac5-5e1cac8ee06a" xmlns="http://www.w3.org/2000/svg" xmlns:xlink="http://www.w3.org/1999/xlink" viewBox="0 0 1424.46 1371.63"><defs><linearGradient id="uuid-be191582-650d-4ae1-8832-743311e1fda5" x1="731.68" y1="1321.42" x2="714.36" y2="1.47" gradientUnits="userSpaceOnUse"><stop offset="0" stop-color="#2d537a"/><stop offset=".98" stop-color="#d1ebff"/></linearGradient><linearGradient id="uuid-8fd7a57d-6a16-441b-b4c6-409791b0b9e6" x1="720.76" y1="1303.8" x2="725.38" y2="51.96" gradientUnits="userSpaceOnUse"><stop offset="0" stop-color="#d9ebff"/><stop offset=".98" stop-color="#fff"/></linearGradient><linearGradient id="uuid-9aacf4f1-421a-4cad-8d9f-c04f73366c48" x1="292.25" y1="1035.12" x2="1173.31" y2="1035.12" gradientUnits="userSpaceOnUse"><stop offset="0" stop-color="#adf"/><stop offset="1" stop-color="#5cb3ff"/></linearGradient></defs><circle cx="723.11" cy="668.09" r="668.09" fill="url(#uuid-be191582-650d-4ae1-8832-743311e1fda5)"/><circle cx="723.11" cy="668.09" r="633.61" fill="url(#uuid-8fd7a57d-6a16-441b-b4c6-409791b0b9e6)"/><polygon points="582.21 762.67 584.7 787.42 437.42 893.73 350.05 931.18 331.06 911.16 582.21 762.67" fill="#ffc84d"/><path d="m527.29,448.06s-27.46-166.25-23.72-188.8c1.23-7.39,11.88-113.67,131.25-116.14,119.62-2.48,148.37-1.21,148.37-1.21,0,0,153.52-4.29,165.98,95.55,12.46,99.84-27.46,205.28-27.46,205.28" fill="#4c4c60"/><path d="m921.72,443.26s51.18,2.5,51.18,62.41c0,75.26-71.15,62.41-71.15,62.41,0,0-28.6,148.72-178.64,148.72s-174.39-148.51-174.39-148.51c0,0-75.43,11.56-75.43-63.88,0-59.92,56.5-61.16,56.5-61.16l26.23-1.08,2.63-116.27s4.29-20.77,21.32-20.77,291.83.81,291.83.81c0,0,22.47,5.5,22.47,19.97s2.5,113.61,2.5,113.61l24.96,3.72Z" fill="#ffc190"/><path d="m949.18,232.86c2.5,99.86-27.46,205.28-27.46,205.28" fill="#4c4c60"/><path d="m300.95,1140.09s153.75,167.48,423.57,167.48,436.85-180.75,436.85-180.75c9.1-12.27,21.56-156.77,0-189.72-6.43-9.82-9.99-35.3-102.35-80.23-92.37-44.93-191.93-90.15-191.93-90.15,0,0-9.07,140.29-145.8,140.29-118.32,0-140.03-144.32-140.03-144.32,0,0-179.85,86.62-231.88,128.78,0,0-57.13,44.03-57.13,147.63s8.7,101,8.7,101Z" fill="url(#uuid-9aacf4f1-421a-4cad-8d9f-c04f73366c48)"/><path d="m580.96,762.67s7.36,145.12,138.48,145.12c139.88,0,147.74-142.41,147.74-142.41l2.11-132.53s-43.72,83.65-146.19,83.65-143.39-86.14-143.39-86.14l2.5,132.31" fill="#ffc191"/><path d="m579.88,637.76l.54,41.15s38.44,80.02,144.1,80.02,143.36-78.67,143.36-78.67l1.53-43.99s-42.76,74.24-146.31,72.92c-106.52-1.37-143.23-71.43-143.23-71.43Z" fill="#e29c70" opacity=".42"/></svg>