<?xml version="1.0" encoding="UTF-8"?><svg id="a" xmlns="http://www.w3.org/2000/svg" viewBox="0 0 1282.15 590.43"><path d="m475,266.13c14.25,5,28.41,10.3,42.8,14.88,6.86,2.18,13.14,6.5,20.9,5.81,6.56-.58,12.57-6.27,13.44-13.4.79-6.49-3.36-11.48-10.19-13.77-16.3-5.47-32.41-11.48-48.69-17-9.37-3.18-18.89-5.91-28.41-8.64-1.42-.41-3-.92-3.17-2.01-.19-1.3,1.52-1.82,2.68-2.56,8.06-5.1,16.04-10.33,23.98-15.62,2.39-1.59,4.48-2.15,7.47-1.06,3.84,1.4,8.16,1.39,11.86,3.49.06.9.12,1.79.17,2.69-2.5,4.71-.64,8.81,1.65,12.95,1.74,3.14,3.8,6.28,4.64,9.69.95,3.86,2.1,3.68,4.87,1.74,6.56-4.59,13.27-8.95,19.92-13.41.38-.5.77-1.01,1.15-1.51,9.23,1.15,17.7,4.87,26.38,7.84,10.97,3.74,21.9,7.63,32.8,11.59,4.18,1.52,8.44,1.8,12.45.26,4.72-1.82,8.55-4.58,8.46-10.77-.15-10.03-.84-11.82-10.76-15.59-10.81-4.12-21.84-7.67-33.98-11.88,5.74-4.24,10.66-7.79,15.48-11.49,2.88-2.2,6.79-4.32,1.36-8.16-1.31-.92-1.02-3.52-3.22-3.97-.1-1.16-.27-2.35,1.23-2.81,9.86,2.91,19.81,5.58,29.57,8.8,18.01,5.93,35.87,12.29,53.87,18.26,6.51,2.16,15.03-2.38,17.15-8.61,2.35-6.93-2.25-15.89-9.22-18.18-12.85-4.22-25.66-8.52-39.63-13.17,4.3-2.72,7.38-5.26,10.9-6.74,4.13-1.73,3.12-3.95,1.53-6.56-2.75-4.51-5.57-8.97-8.65-13.91,3.57-.65,6.25-.23,9.33.78,15,4.89,30.38,8.68,45.17,14.09,13.12,4.79,26.3,9.33,39.7,13.19,8.86,2.55,16.84-.91,19.48-7.78,2.37-6.16-1.26-13.98-8.9-17.84-9.78-4.93-20.82-6.01-31.12-9.44-25.57-8.5-51.17-16.93-76.8-25.24-8.21-2.66-16.45-5.39-24.88-7.11-6.35-1.3-4.73-4.03-2.37-7.29,13.15-18.16,26.57-36.12,39.52-54.43,8.37-11.84,17.55-23.04,26.15-34.68,5.37-7.26,12.78-8.19,20.47-7.26,6.51.79,7.94,6.91,9.57,12.24-1.25,2.02-2.34,4.16-3.76,6.05-16.15,21.56-32.23,43.16-48.62,64.53-2.81,3.66-1.84,4.95,1.43,7.14,11.25,7.52,22.28,15.36,33.41,23.05,4.3,2.97,8.62,8.17,12.96,8.21,4.56.04,9.11-4.97,13.74-7.64,18.4-10.58,37.8-11.43,58.06-6.53,10.74,2.59,18.78,10.41,29.06,13.66,37.33,20.44,74.89,40.47,111.87,61.52,17.06,9.71,34.2,16.76,54.28,16.09,17.72-.59,31.43-8.7,43.45-20.55,12.16-11.99,21.3-26.44,31.38-40.1,13.59-18.41,30.17-32.35,52.97-37.85,17.59-4.24,34.43-1.62,50.58,5.61,18.96,8.49,37.69,17.51,56.43,26.49,7,3.36,11.15,8.68,10.23,17.09-.21,1.89-.59,4.19-1.66,4.87-7.63,4.88-2.23,9.91-.25,14.6,11.04,26.22,19.75,53.26,25.97,80.93,5.62,25.02,9.49,50.46,13.53,75.8,1.75,10.98,2.65,22.2,2.76,33.33.16,15.78,2.25,31.49,1.32,47.29-.35,5.83-.9,11.65-1.05,17.48-.06,2.47-1.03,2.9-3.21,3.05-17.38,1.23-34.75,2.51-52.11,3.95-21.03,1.74-42.15,1.79-63.18,2.98-16.44.93-32.83.53-49.24,1.01-18.35.53-36.79-.02-55.03,1.67-14.65,1.35-29.32-.46-43.76,1.29-20.41,2.47-40.92,3.1-61.36,4.83-12.23,1.04-24.49,2.25-36.73,3.29-16.85,1.43-33.62,3.81-50.39,6.06-17,2.27-34,4.66-50.94,7.4-15.61,2.53-31.17,5.41-46.69,8.48-26.2,5.18-52.52,9.88-78.46,16.17-23.67,5.74-47.74,9.01-71.67,12.87-18.38,2.97-37.14,4.16-55.71,6.12-41.75,4.42-83.54,3.13-125.35,3.57-14.87.16-29.75-.44-44.39-1.64-21.47-1.76-43.02-3.27-64.48-5.8-18.98-2.23-37.84-5.31-56.83-7.48-13.8-1.57-27.47-4.32-41.15-6.8-22.44-4.08-44.68-9.13-66.74-14.88-19.07-4.97-37.95-10.41-56.63-16.92-18.56-6.46-36.73-13.47-54.29-22.13-5.81-2.87-11.53-6.2-16.58-10.21-4.51-3.59-2.15-9.42-1.78-13.98,1.37-16.97,6.34-32.84,16.76-46.68,11.71-15.56,27.24-25.15,46.01-29.78,2.15-.53,4.3-1.1,6.46-1.62,7.53-1.79,14.99-3.53,19.54,5.53.63,1.25,2.33,1.97,3.54,2.94.89.97,1.67,2.07,2.68,2.89,13.49,10.91,29.09,17.95,45.17,23.87,18.41,6.78,37.57,11.17,56.43,16.48,14.09,3.96,28.34,7.33,42.48,11.13,14.63,3.93,29.35,7.6,43.77,12.22,10.62,3.4,21.49,6.03,31.18,12.49,12.06,8.05,24.2,16.18,37.69,21.92,12.73,5.42,25.41,8.08,39.29,3.95,14.58-4.34,24.97-12.39,29.78-27.19,3.85-11.85,3.16-23.45-.28-35.26-3.74-12.82-7.33-15.83-20.53-15.74-27.01.18-51.38-7.59-72.93-24.05-10.71-8.18-18.45-18.84-25.93-29.78,4.1-5.5,10.75-4.02,16.15-5.32,11.07-2.67,21.62-6.9,32.6-9.76,3.73-.97,3.43-4.75,3.75-7.14,1.13-8.32,8.16-11.24,13.45-15.6,2.03-1.68,4.8.81,6.5,2.25,16.65,14.07,34.24,26.99,50.23,41.87,4.61,4.29,9.18,9.41,17.07,8.74,6.39-.54,10.81-3.24,12.94-8.73,2.4-6.22,1.97-12.36-4-17.03-14.2-11.13-28.31-22.37-42.46-33.57-3.12-2.47-6.13-5.09-9.35-7.43-4.44-3.22-2.24-3.97,1.38-5.56,11.26-4.93,21.12-1.76,30.68,4.38-.49.86-.99,1.73-1.48,2.59-3.59,3-5.66,5.92-1.54,10.41,2.27,2.47,3.5,5.93,5.04,9.02,1.01,2.02,1.96,3.56,4.43,1.79,5.81-4.14,12.97-6.16,18.01-11.51,3.3.61,4.96-3.03,7.99-3.11Zm276.85,89.58c-4.51,0-9.05.33-13.53-.06-13.3-1.16-24.32-13.88-24.79-27-.38-10.67,6.07-18.24,10.6-26.64,3.81-7.06,10.56-13.63,9.62-21.69-2.18-18.48-17.09-25.18-32.65-20.64-7.49,2.19-10.89,8.38-15.43,13.6-16.71,19.21-33.63,38.28-46.43,60.47-10.24,17.75-17.51,36.11-13.59,57.43,4.68,25.41,19.83,41.98,42.93,51.38,20.17,8.2,41.23,6.17,61.98,1.97,25.06-5.07,49.34-12.98,73.79-20.42,30.47-9.27,60.45-19.82,90.27-30.84,33.16-12.26,65.89-25.69,98.84-38.54,29.74-11.6,59.8-22.35,89.27-34.69,20.27-8.49,40.9-16.05,60.69-25.71,21.09-10.29,42.56-19.81,63.82-29.76,11.73-5.49,18.96-19.26,12.79-34.31-4.07-9.94-19.13-14.4-30.61-9.68-20.32,8.35-40.39,17.3-60.94,25.13-13.8,5.26-27.86,9.82-41.32,16.14-8.51,4-17.96,6.33-27.22,8.32-8.13,1.74-15.09,6.05-22.87,8.52-23.21,7.38-46.09,15.83-69.43,22.74-49.72,14.71-99.21,30.25-149.53,42.9-21.8,5.48-43.43,11.95-66.25,11.38Z" fill="#144885"/><path d="m0,442.87c5.12-7.67,7.73-8.23,14.88-2.64,13.18,10.3,28.84,15.57,44.05,21.62,36.1,14.36,73.75,23.61,111.61,31.66,25.65,5.46,51.47,10.22,77.62,13.35,16.17,1.94,32.31,5.11,48.54,7.2,14.25,1.83,28.56,3.43,42.89,4.45,49.74,3.54,99.57,5.52,149.43,3.95,23.56-.74,47.11-2.76,70.64-4.76,18.13-1.54,36.17-3.69,54.16-6.11,17.31-2.33,34.34-6.71,51.52-10.03,50.28-9.72,100.23-21.17,150.88-28.98,28.41-4.38,56.83-8.68,85.51-11.03,12.98-1.06,25.89-3.19,38.88-3.8,33.08-1.56,66.09-4.26,99.25-4.64,10.53-.12,21.17-.36,31.73-1,26.16-1.58,52.38-.45,78.52-1.56,29.63-1.26,59.33-2.06,88.82-6.18,9.04-1.26,18.32-2.38,27.62-1.8,4.17.26,7.08,1.43,7.45,5.99.36,4.48-1.48,6.84-6.16,8.06-7.55,1.96-15.27,1.47-22.82,2.04-20.63,1.55-41.2,3.86-61.9,4.87-14.22.7-28.44.07-42.59,1.1-23.91,1.75-47.86.38-71.74,1.42-25.45,1.11-50.94,1.12-76.34,2.73-31.84,2.03-63.69,3.95-95.45,7.53-26.34,2.97-52.65,6.19-78.84,10.14-24.64,3.72-49.09,8.8-73.54,13.66-29.75,5.91-59.28,13.03-89.17,18.11-25.6,4.35-51.22,8.71-77.08,11.63-20.79,2.34-41.59,3.92-62.45,5.29-40.86,2.69-81.77,1.81-122.59.78-31.39-.79-62.76-4.01-94.08-7.26-42.31-4.39-84.16-11.37-125.78-19.69-41.31-8.26-81.97-19.22-121.47-34.12-2.66-1-5.28-2.56-9.02-2.06,2.43,4.16,6.19,6.09,9.59,8.2,25.42,15.78,52.89,26.92,81.15,36.49,23.26,7.88,46.85,14.45,70.62,20.46,22.65,5.73,45.41,10.88,68.46,14.89,18.11,3.15,36.26,6.09,54.42,8.87,13.74,2.11,27.68,2.96,41.53,4.38,23.3,2.39,46.69,3.16,70.06,4.47,11.96.67,23.89.98,35.82.99,223.34.08,446.68-.01,670.02.22,13.3.01,26.93-.13,39.46-2.76,28.92-6.07,55.2-18.22,70.17-46.42,4.07-7.66,6.26-15.92,8.49-24.18.79-2.93-.57-4.15-3.64-3.83-36.06,3.74-72.17,6.19-108.45,6.97-14.86.32-29.8-.12-44.61,1.08-25.95,2.11-51.92.34-77.86,1.32-27.22,1.03-54.47,2.07-81.63,4.16-33.37,2.57-66.78,5.32-99.95,9.7-27.12,3.59-54.13,8.35-81.05,13.57-33.51,6.5-66.86,13.77-100.37,20.26-26.81,5.19-53.88,8.46-80.78,12.91-4.67.77-9.63,1.89-14.63.44-4.13-1.2-5.38-4.16-5.09-7.64.3-3.6,2.24-5.84,6.58-6.21,34.5-2.98,68.64-8.45,102.55-15.37,33.67-6.88,67.2-14.5,100.99-20.75,29.12-5.39,58.45-9.85,87.82-13.71,21.15-2.78,42.54-3.69,63.78-5.83,18.41-1.86,36.93-1.55,55.29-2.92,39.16-2.91,78.36-3,117.55-4.12,17.36-.5,34.74-.3,52.09-1.08,26.31-1.18,52.63-2.38,78.9-4.21,13.43-.93,26.71-3.79,40.24-3.88,10.6-.07,11.57.94,11.62,11.58,0,1.12-.03,2.25-.05,3.37-1.14,1.85-2.44,3.36-2.85,5.86-5.15,31.74-21.14,56.25-49.66,71.72-25.54,13.85-53.53,17.88-82.06,18.06-69.4.46-138.8.71-208.21.49-160.16-.51-320.32,1.03-480.47-1.11-9.26-.12-18.77,1.24-27.73-.41-18.48-3.4-37.15-1.9-55.64-3.75-14.64-1.46-29.47-1.85-43.89-4.51-16.37-3.03-33.01-4.02-49.3-7.68-18.05-4.06-36.4-6.81-54.54-10.48-12.07-2.44-23.79-7.05-35.68-9.34-17.45-3.36-34.49-7.9-51.27-13.25-18.91-6.04-37.32-13.64-55.54-21.66-17.88-7.87-35.48-16.18-51.06-28.11-16.04-12.29-28.26-27.49-34.21-47.17Z" fill="#86b4e7"/><path d="m313.61,309.82c7.48,10.94,15.22,21.61,25.93,29.78,21.56,16.47,45.92,24.23,72.93,24.05,13.21-.09,16.8,2.92,20.53,15.74,3.44,11.8,4.13,23.41.28,35.26-4.81,14.8-15.2,22.84-29.78,27.19-13.88,4.13-26.56,1.47-39.29-3.95-13.49-5.74-25.63-13.87-37.69-21.92-9.69-6.46-20.55-9.09-31.18-12.49-14.41-4.62-29.13-8.29-43.77-12.22-14.14-3.79-28.39-7.16-42.48-11.13-18.86-5.31-38.02-9.7-56.43-16.48-16.08-5.92-31.68-12.96-45.17-23.87-1.01-.82-1.79-1.92-2.68-2.89,4.12-4.01,9.41-2.09,14.19-2.81,16.87-2.54,33.9-3.58,50.84-5.44,19.83-2.18,39.55-5.25,59.36-7.64,14.26-1.72,28.65-2.46,42.84-4.58,13.87-2.07,27.98-2.75,41.57-6.6Zm-21.8,42c-3.92-.62-5.33,1.94-5.21,4.95.11,2.91,2.28,4.73,5.42,4.58,3.47-.16,5.19-2.39,5.26-5.62.09-3.68-2.5-4.25-5.47-3.92Zm-40.81-19.06c-2.69.16-5.36.35-5.29,4.2.05,3.2,2.03,5.13,4.74,5.27,2.57.13,5.03-.98,4.97-4.64-.05-3.14-.52-5.34-4.43-4.83Zm-49.94,12.21c-3.25-.16-5.73.4-5.52,4.27.17,3.17,2.17,5.23,4.97,5.2,3.16-.03,4.82-2,4.87-5.75.05-3.87-1.78-4.02-4.32-3.71Zm129.73,27.15c-3.08,0-6.28-.57-6.36,3.91-.06,3.21,1.93,5.21,4.56,5.47,2.59.26,5.23-.91,5.05-4.57-.11-2.43.54-5.24-3.26-4.8Z" fill="#86b4e7"/><path d="m807.4,121.02c-10.28-3.25-18.32-11.06-29.06-13.66-20.27-4.89-39.66-4.05-58.06,6.53-4.63,2.67-9.19,7.68-13.74,7.64-4.34-.04-8.66-5.23-12.96-8.21-11.13-7.7-22.17-15.53-33.41-23.05-3.27-2.19-4.24-3.48-1.43-7.14,16.39-21.37,32.48-42.98,48.62-64.53,1.42-1.89,2.51-4.03,3.76-6.05,4.72-1.38,8.31.6,12.12,3.29,24.4,17.24,48.97,34.47,69.23,56.48,12.12,13.17,19.43,29.57,14.93,48.7Z" fill="#ffa25f"/><path d="m609.58,134.85c2.77,8.14,6.83,15.64,11.98,22.47,1.32,1.75,1.66,3.38,1.09,4.84-.86,2.18-3.08,1.28-4.67.78-15.5-4.77-30.98-9.62-46.45-14.48-4.25-1.33-5.9-3.06-1.15-6.26,2.17-1.46,4.39-3.27,5.74-5.44,8.6-13.9,20.2-13.32,33.08-7.26.13,1.78.26,3.56.39,5.34Z" fill="#86b4e7"/><path d="m555.35,176.89c.12,7.06,5.1,12.06,7.76,18.03,1.18,2.66,2.95,5.06,4.45,7.57.69,1.16,1.71,2.65.62,3.62-.81.72-2.68.85-3.84.48-15.4-4.86-30.78-9.8-46.1-14.88-2.33-.77-1.93-2.61-.3-4.05,7.23-6.39,14.54-12.68,21.66-19.18,1.44-1.31,2.76-1.7,4.13-.8,3.95,2.56,8.61,3.22,12.8,5.11-.08,1.46-2.05,2.37-1.18,4.1Z" fill="#86b4e7"/><path d="m555.35,176.89c-.87-1.73,1.1-2.64,1.18-4.1,10.7,2.33,20.69,7.35,31.74,8.3,1.37.12,1.79,1.16,2.02,2.32-1.5.46-1.33,1.65-1.24,2.81-11.24-3.11-22.47-6.22-33.71-9.32Z" fill="#c1d3e7"/><path d="m609.58,134.85c-.13-1.78-.26-3.56-.39-5.34,10.03,3.1,20.05,6.2,30.08,9.29,1.36.42,2.76.95,2.12,2.69-.64,1.74-2.1,1.11-3.41.76-9.46-2.48-18.93-4.94-28.39-7.4Z" fill="#c1d3e7"/><path d="m475,266.13c-3.04.08-4.69,3.72-7.99,3.11-.16-1.85-1.27-2.42-3.01-2.9-7.68-2.14-15.29-4.52-22.93-6.81.49-.86.99-1.73,1.48-2.59,10.52,2.47,21.04,4.93,31.54,7.49.42.1.61,1.12.91,1.71Z" fill="#c1d3e7"/><path d="m507.86,218.93c-.06-.9-.12-1.79-.17-2.69,10.19,3.23,20.38,6.46,30.58,9.67,1.27.4,1.71,1.29,1.82,2.48-.38.51-.77,1.01-1.15,1.51-1.61-2.19-4.15-2.29-6.47-3.08-8.16-2.78-17.11-3.09-24.61-7.9Z" fill="#c1d3e7"/><path d="m751.86,355.71c22.82.57,44.45-5.9,66.25-11.38,50.32-12.65,99.81-28.18,149.53-42.9,23.34-6.91,46.22-15.37,69.43-22.74,7.77-2.47,14.74-6.77,22.87-8.52,9.26-1.98,18.71-4.32,27.22-8.32,13.45-6.32,27.51-10.88,41.32-16.14,20.55-7.84,40.61-16.79,60.94-25.13,11.48-4.72,26.54-.26,30.61,9.68,6.17,15.05-1.05,28.82-12.79,34.31-21.26,9.95-42.73,19.46-63.82,29.76-19.8,9.66-40.43,17.22-60.69,25.71-29.47,12.34-59.53,23.09-89.27,34.69-32.95,12.85-65.67,26.28-98.84,38.54-29.81,11.03-59.8,21.58-90.27,30.84-24.45,7.44-48.73,15.35-73.79,20.42-20.75,4.19-41.81,6.23-61.98-1.97-23.1-9.4-38.25-25.97-42.93-51.38-3.92-21.32,3.35-39.68,13.59-57.43,12.8-22.19,29.72-41.26,46.43-60.47,4.54-5.22,7.94-11.42,15.43-13.6,15.57-4.54,30.48,2.15,32.65,20.64.95,8.06-5.81,14.63-9.62,21.69-4.53,8.39-10.99,15.97-10.6,26.64.47,13.13,11.49,25.84,24.79,27,4.48.39,9.02.06,13.53.06Zm1.91,12.26c-4.97,0-10,.49-14.9-.08-23.37-2.73-41.2-22.96-36.59-47.49,2.27-12.08,9.23-21.34,15.48-31.18,4.29-6.76,4.16-11.93-.47-15.63-4.42-3.54-11.61-2.8-16.54,2.13-4.3,4.3-8.3,8.91-12.29,13.5-17.54,20.18-34.88,40.56-45.56,65.46-6.68,15.58-10.07,30.94-1.03,47.63,8.67,16,20.89,26.18,37.97,31.06,19.02,5.44,38.06,2.6,56.51-2.07,25.12-6.37,49.96-13.9,74.72-21.71,26.31-8.3,52.03-18.09,78.03-27.2,29.01-10.17,56.87-23.23,85.93-33.35,26.64-9.28,52.45-20.9,78.9-30.77,21.88-8.17,43.2-17.66,64.87-26.31,14.77-5.9,29.01-13.02,43.54-19.45,14.56-6.45,28.18-14.56,42.33-21.69,2.78-1.4,5.38-3.95,5.81-7.87,1.07-9.59-5.08-14.47-15.13-11.22-8.98,2.91-17.65,6.83-26.27,10.57-13.73,5.97-27.76,11.23-41.6,16.82-17.63,7.12-35.74,13.33-53.64,19.82-21.51,7.8-43.79,13.15-65,21.84-8.67,3.55-18.62,4.14-27.05,8.07-24.05,11.21-50.28,15.46-75.05,24.47-13.6,4.95-28.45,7.53-42.66,11.52-16.47,4.62-33.2,8.37-49.59,13.1-19.97,5.77-39.86,10.5-60.73,10.04Z" fill="#fefeff"/><path d="m507.86,218.93c7.5,4.81,16.45,5.12,24.61,7.9,2.32.79,4.86.88,6.47,3.08-6.65,4.46-13.36,8.82-19.92,13.41-2.76,1.93-3.91,2.12-4.87-1.74-.84-3.41-2.9-6.55-4.64-9.69-2.29-4.14-4.15-8.24-1.65-12.95Z" fill="#fefeff"/><path d="m441.07,259.53c7.64,2.29,15.25,4.67,22.93,6.81,1.74.48,2.85,1.05,3.01,2.9-5.04,5.34-12.2,7.37-18.01,11.51-2.47,1.76-3.42.22-4.43-1.79-1.54-3.09-2.77-6.55-5.04-9.02-4.11-4.48-2.05-7.4,1.54-10.41Z" fill="#fefeff"/><path d="m291.81,351.82c2.97-.33,5.55.24,5.47,3.92-.07,3.22-1.79,5.45-5.26,5.62-3.14.15-5.31-1.67-5.42-4.58-.12-3.01,1.3-5.57,5.21-4.95Z" fill="#2c384a"/><path d="m251,332.77c3.9-.51,4.38,1.7,4.43,4.83.06,3.66-2.41,4.77-4.97,4.64-2.72-.14-4.69-2.07-4.74-5.27-.07-3.85,2.6-4.04,5.29-4.2Z" fill="#2c384a"/><path d="m201.06,344.98c2.54-.31,4.37-.16,4.32,3.71-.05,3.75-1.71,5.72-4.87,5.75-2.8.03-4.8-2.03-4.97-5.2-.21-3.87,2.27-4.42,5.52-4.27Z" fill="#2c384a"/><path d="m330.79,372.13c3.79-.44,3.14,2.37,3.26,4.8.17,3.67-2.47,4.83-5.05,4.57-2.63-.26-4.62-2.26-4.56-5.47.08-4.48,3.28-3.91,6.36-3.91Z" fill="#2c384a"/><path d="m753.77,367.97c20.87.47,40.76-4.27,60.73-10.04,16.39-4.73,33.13-8.48,49.59-13.1,14.2-3.99,29.06-6.57,42.66-11.52,24.77-9.01,51-13.26,75.05-24.47,8.43-3.93,18.38-4.52,27.05-8.07,21.2-8.69,43.48-14.05,65-21.84,17.9-6.49,36.02-12.7,53.64-19.82,13.84-5.59,27.87-10.86,41.6-16.82,8.62-3.74,17.29-7.67,26.27-10.57,10.04-3.25,16.19,1.63,15.13,11.22-.44,3.92-3.03,6.47-5.81,7.87-14.15,7.13-27.77,15.24-42.33,21.69-14.52,6.43-28.77,13.55-43.54,19.45-21.67,8.66-42.99,18.14-64.87,26.31-26.44,9.87-52.26,21.49-78.9,30.77-29.06,10.13-56.92,23.19-85.93,33.35-25.99,9.11-51.72,18.9-78.03,27.2-24.76,7.81-49.6,15.34-74.72,21.71-18.45,4.68-37.49,7.51-56.51,2.07-17.08-4.88-29.3-15.06-37.97-31.06-9.04-16.69-5.65-32.05,1.03-47.63,10.67-24.9,28.02-45.28,45.56-65.46,3.99-4.59,7.99-9.2,12.29-13.5,4.93-4.93,12.12-5.66,16.54-2.13,4.63,3.7,4.76,8.87.47,15.63-6.25,9.84-13.2,19.1-15.48,31.18-4.61,24.53,13.22,44.75,36.59,47.49,4.9.57,9.93.08,14.9.08Z" fill="#86b4e7"/></svg>